<svg width="137" height="12" viewBox="0 0 137 12" fill="none" xmlns="http://www.w3.org/2000/svg">
    <path d="M7.20094 7.62814V1H1.78888V2.55779H5.34667V7.72864C5.34667 8.95477 4.82908 9.57287 3.78888 9.57287C3.02003 9.57287 2.35672 9.19096 1.80395 8.43216L0.743652 9.70352C1.08536 10.1608 1.52757 10.5176 2.06526 10.7688C2.60295 11.0201 3.19089 11.1457 3.82908 11.1457C4.93461 11.1457 5.7738 10.8543 6.34164 10.2663C6.91451 9.67839 7.20094 8.799 7.20094 7.62814Z" fill="#7C1808" />
    <path d="M17.2613 9.44221H11.6181V6.68844H16.4472V5.15578H11.6181V2.55779H17.0603V1H9.75879V11H17.2613V9.44221Z" fill="#7C1808" />
    <path d="M28.1204 1H26.2762V7.77387L20.7586 1H19.231V11H21.0752V4.23116L26.5877 11H28.1204V1Z" fill="#7C1808" />
    <path d="M35.6129 9.24631C35.2461 9.48249 34.6933 9.60309 33.9496 9.60309C33.3516 9.60309 32.7536 9.50259 32.1556 9.29656C31.5627 9.09053 31.0602 8.82922 30.6481 8.50259L30.0049 9.9448C30.422 10.3066 30.9948 10.5981 31.7134 10.8141C32.432 11.0353 33.1757 11.1408 33.9496 11.1408C34.824 11.1408 35.5677 11.0051 36.1808 10.7388C36.7888 10.4724 37.2461 10.1157 37.5426 9.66842C37.8441 9.22118 37.9948 8.71867 37.9948 8.16591C37.9948 7.51767 37.824 7.0051 37.4873 6.62319C37.1506 6.24128 36.7436 5.95988 36.2662 5.77395C35.7888 5.58802 35.1808 5.41214 34.437 5.23626C33.8943 5.10561 33.4672 4.985 33.1506 4.87948C32.834 4.77395 32.5777 4.63324 32.3717 4.45234C32.1657 4.27144 32.0652 4.04028 32.0652 3.75385C32.0652 3.34681 32.2461 3.01515 32.6029 2.76892C32.9597 2.52269 33.5074 2.39706 34.2411 2.39706C34.6883 2.39706 35.1506 2.46239 35.628 2.59807C36.1054 2.73375 36.5627 2.9247 36.9999 3.18601L37.5777 1.7438C37.1506 1.45736 36.638 1.24128 36.0501 1.08551C35.4571 0.934752 34.8592 0.859375 34.2511 0.859375C33.3767 0.859375 32.633 0.995053 32.03 1.26139C31.427 1.52772 30.9747 1.88953 30.6732 2.34179C30.3717 2.79405 30.221 3.29656 30.221 3.84932C30.221 4.50762 30.3918 5.03023 30.7285 5.41214C31.0652 5.79907 31.4722 6.08048 31.9446 6.26138C32.4169 6.44229 33.035 6.62319 33.7938 6.8041C34.3365 6.93978 34.7637 7.05536 35.0803 7.16088C35.3968 7.26641 35.6531 7.41214 35.8592 7.59807C36.0652 7.784 36.1657 8.02018 36.1657 8.30661C36.1607 8.69355 35.9798 9.0051 35.6129 9.24631Z" fill="#7C1808" />
    <path d="M41.7337 6.68844H46.5628V5.15578H41.7337V2.55779H47.1759V1H39.8794V11H47.3769V9.44221H41.7337V6.68844Z" fill="#7C1808" />
    <path d="M58.2208 1H56.3816V7.77387L50.8641 1H49.3364V11H51.1806V4.23116L56.6932 11H58.2208V1Z" fill="#7C1808" />
    <path d="M67.5376 6.62822C67.201 6.24631 66.7939 5.9649 66.3165 5.77897C65.8392 5.59304 65.2311 5.41214 64.4874 5.24128C63.9447 5.10561 63.5176 4.99003 63.201 4.8845C62.8844 4.77897 62.6281 4.63827 62.4221 4.45736C62.216 4.27646 62.1155 4.0453 62.1155 3.75887C62.1155 3.35184 62.2964 3.02018 62.6532 2.77395C63.01 2.52772 63.5577 2.40209 64.2914 2.40209C64.7387 2.40209 65.201 2.46741 65.6784 2.60309C66.1557 2.73877 66.613 2.92973 67.0502 3.19103L67.6382 1.74882C67.211 1.46239 66.6985 1.24631 66.1105 1.09053C65.5176 0.939777 64.9196 0.859375 64.3115 0.859375C63.4371 0.859375 62.6934 0.995053 62.0904 1.26139C61.4874 1.52772 61.0351 1.88953 60.7336 2.34179C60.4321 2.79405 60.2814 3.29656 60.2814 3.84932C60.2814 4.50762 60.4522 5.03023 60.7889 5.41214C61.1256 5.79907 61.5326 6.08048 62.005 6.26138C62.4773 6.44229 63.0954 6.62319 63.8542 6.8041C64.3969 6.93978 64.8241 7.05535 65.1407 7.16088C65.4572 7.26641 65.7135 7.41214 65.9196 7.59807C66.1256 7.784 66.2261 8.02018 66.2261 8.30661C66.2261 8.69857 66.0402 9.01013 65.6784 9.25133C65.3115 9.48752 64.7588 9.60812 64.015 9.60812C63.417 9.60812 62.8191 9.50762 62.2211 9.30159C61.6281 9.09556 61.1256 8.83425 60.7135 8.50762L60.0703 9.94983C60.4874 10.3116 61.0603 10.6031 61.7789 10.8192C62.4974 11.0403 63.2412 11.1458 64.015 11.1458C64.8894 11.1458 65.6331 11.0152 66.2462 10.7438C66.8542 10.4775 67.3115 10.1207 67.608 9.67344C67.9095 9.22621 68.0603 8.7237 68.0603 8.17093C68.0452 7.52269 67.8743 7.01013 67.5376 6.62822Z" fill="#7C1808" />
    <path d="M81.6079 5.79889C82.0099 5.58784 82.3215 5.29638 82.5526 4.91447C82.7787 4.53256 82.8943 4.09538 82.8943 3.59789C82.8943 2.78884 82.5727 2.15065 81.9396 1.68834C81.3014 1.22603 80.3918 0.994873 79.2109 0.994873H74.5225V10.9949H79.4923C80.7687 10.9949 81.7385 10.7587 82.4069 10.2863C83.0752 9.81397 83.4069 9.14563 83.4069 8.27628C83.4069 7.64814 83.2461 7.1205 82.9194 6.69839C82.5978 6.28633 82.1607 5.9798 81.6079 5.79889ZM76.3767 2.45718H79.0049C79.6531 2.45718 80.1506 2.57276 80.4973 2.80894C80.8441 3.0401 81.02 3.38683 81.02 3.84412C81.02 4.29136 80.8441 4.63306 80.4973 4.86422C80.1506 5.09538 79.6531 5.21598 79.0049 5.21598H76.3767V2.45718ZM79.3767 9.54261H76.3767V6.65819H79.3767C80.8139 6.65819 81.5325 7.1406 81.5325 8.1004C81.5375 9.06523 80.8189 9.54261 79.3767 9.54261Z" fill="#7C1808" />
    <path d="M93.6231 2.0201L95.0653 0H93.7387L92.7086 1.44221C91.9297 1.05528 91.0653 0.859297 90.1106 0.859297C89.0905 0.859297 88.1709 1.0804 87.3518 1.52261C86.5327 1.96482 85.8895 2.57789 85.4221 3.36683C84.9548 4.15075 84.7236 5.03015 84.7236 6.00503C84.7236 6.9799 84.9548 7.85427 85.4221 8.64322C85.7337 9.17086 86.1307 9.61809 86.603 9.99498L85.1658 12.0101H86.4925L87.5176 10.5729C88.2915 10.9598 89.1558 11.1508 90.1055 11.1508C91.1256 11.1508 92.0452 10.9296 92.8643 10.4874C93.6834 10.0452 94.3267 9.43216 94.794 8.65327C95.2613 7.87437 95.4925 6.98995 95.4925 6.01005C95.4925 5.03015 95.2563 4.15075 94.794 3.36683C94.4824 2.83417 94.0905 2.39196 93.6231 2.0201ZM87.0503 7.80905C86.7437 7.27136 86.593 6.66834 86.593 6C86.593 5.33166 86.7437 4.72864 87.0503 4.19096C87.3568 3.65327 87.7739 3.23116 88.3066 2.93467C88.8392 2.63317 89.4422 2.48241 90.1055 2.48241C90.6935 2.48241 91.2261 2.59799 91.7086 2.82915L87.6282 8.55779C87.402 8.34171 87.2111 8.09045 87.0503 7.80905ZM93.1658 7.80905C92.8593 8.34674 92.4422 8.76382 91.9096 9.06533C91.3769 9.36684 90.7739 9.51759 90.1106 9.51759C89.5277 9.51759 88.995 9.40201 88.5176 9.17588L92.603 3.45729C92.8241 3.67337 93.0101 3.9196 93.1709 4.19598C93.4774 4.73367 93.6282 5.33668 93.6282 6.00503C93.6231 6.66834 93.4724 7.27136 93.1658 7.80905Z" fill="#7C1808" />
    <path d="M97.4673 11H99.3266V7.17085H104.156V5.60302H99.3266V2.55779H104.769V1H97.4673V11Z" fill="#7C1808" />
    <path d="M113.397 5.13065H108.226V1H106.367V11H108.226V6.71357H113.397V11H115.256V1H113.397V5.13065Z" fill="#7C1808" />
    <path d="M124.728 6.57287C124.728 8.53769 123.884 9.51759 122.201 9.51759C120.507 9.51759 119.658 8.53769 119.658 6.57287V1H117.799V6.64322C117.799 8.09045 118.186 9.20101 118.955 9.9799C119.728 10.7538 120.804 11.1457 122.186 11.1457C123.568 11.1457 124.643 10.7588 125.407 9.9799C126.176 9.20603 126.558 8.09045 126.558 6.64322V1H124.728V6.57287Z" fill="#7C1808" />
    <path d="M134.528 5.77883C134.05 5.5929 133.442 5.41702 132.698 5.24114C132.156 5.11049 131.729 4.98989 131.412 4.88436C131.095 4.77883 130.839 4.63813 130.633 4.45722C130.427 4.27632 130.327 4.04516 130.327 3.75873C130.327 3.35169 130.508 3.02004 130.864 2.77381C131.221 2.52757 131.769 2.40195 132.503 2.40195C132.95 2.40195 133.412 2.46727 133.889 2.60295C134.367 2.73863 134.824 2.92958 135.261 3.19089L135.849 1.74868C135.422 1.46225 134.91 1.24617 134.322 1.09039C133.729 0.939635 133.131 0.864258 132.523 0.864258C131.648 0.864258 130.905 0.999936 130.301 1.26627C129.698 1.5326 129.246 1.89441 128.945 2.34667C128.643 2.79893 128.492 3.30144 128.492 3.85421C128.492 4.5125 128.663 5.03511 129 5.41702C129.337 5.80396 129.744 6.08536 130.216 6.26627C130.688 6.44717 131.307 6.62808 132.065 6.80898C132.608 6.94466 133.035 7.06024 133.352 7.16577C133.668 7.27129 133.925 7.41702 134.131 7.60295C134.337 7.78888 134.437 8.02506 134.437 8.31149C134.437 8.70345 134.251 9.01501 133.884 9.25622C133.518 9.4924 132.965 9.613 132.221 9.613C131.623 9.613 131.025 9.5125 130.427 9.30647C129.834 9.10044 129.332 8.83913 128.92 8.5125L128.276 9.95471C128.693 10.3165 129.266 10.608 129.985 10.8241C130.704 11.0452 131.447 11.1507 132.221 11.1507C133.095 11.1507 133.839 11.015 134.452 10.7487C135.06 10.4823 135.518 10.1256 135.819 9.67833C136.121 9.23109 136.271 8.72858 136.271 8.17582C136.271 7.52757 136.1 7.01501 135.764 6.6331C135.412 6.25119 135.005 5.96476 134.528 5.77883Z" fill="#7C1808" />
</svg>